<svg width="50" height="65" fill="none" xmlns="http://www.w3.org/2000/svg"><path d="M43.942 18.817c-.718-.402-1.378-.89-2.081-1.321-.173-.1-.23-.201-.201-.402.23-1.565.401-3.13.473-4.694.058-1.264-.43-2.283-1.478-2.986-4.207-2.828-8.398-5.656-12.648-8.427-2.01-1.306-4.163-1.32-6.158-.014-4.264 2.77-8.484 5.627-12.69 8.47-1.005.674-1.493 1.679-1.45 2.9.057 1.593.244 3.186.473 4.765.03.23-.028.345-.215.46-.732.459-1.464.933-2.196 1.392-2.24 1.436-3.216 3.79-2.613 6.388 2.656 11.298 8.9 20.084 18.59 26.429 2.082 1.363 4.278 1.363 6.374.014 7.049-4.536 12.375-10.58 15.863-18.231.086-.187.23-.345.258-.56.101-.69-.445-1.25-1.248-1.25h-14.6c-.502 0-.861.187-1.148.604a24.507 24.507 0 01-2.053 2.641c-.287.33-.287.33-.575 0-3.344-3.818-5.498-8.211-6.46-13.207-.043-.215 0-.33.187-.445 2.11-1.392 4.22-2.8 6.33-4.206.159-.1.274-.13.446-.015a607.603 607.603 0 006.36 4.221c.157.115.215.201.172.416a29.179 29.179 0 01-1.063 3.991c-.315.948.144 1.58 1.134 1.58H45.32c.603 0 .962-.288 1.12-.862.086-.302.143-.603.23-.89.818-2.943-.517-5.498-2.728-6.761zM36.305 34.09c.072-.13.143-.23.33-.23 1.593.014 3.201 0 4.81 0 .014.158-.058.23-.101.316-3.36 6.589-8.197 11.843-14.413 15.834-1.292.833-2.656.847-3.934.014-9.302-6.042-15.274-14.44-17.786-25.264-.373-1.637.244-3.101 1.665-4.006.56-.358 1.106-.703 1.708-1.09.23 1.133.445 2.224.718 3.301 1.335 5.312 3.374 10.336 6.546 14.83 1.91 2.698 4.178 5.038 6.963 6.847 1.42.919 2.799.919 4.22 0 3.015-1.952 5.412-4.536 7.422-7.494a32.635 32.635 0 001.852-3.057zm2.957-15.346a57.705 57.705 0 01-1.45 6.187c-.072.215-.143.301-.387.301-1.45-.014-2.9 0-4.393 0 .301-1.09.574-2.139.76-3.23.159-.947-.129-1.737-.918-2.268a498.843 498.843 0 00-6.747-4.493c-.761-.503-1.594-.503-2.354-.014a505.321 505.321 0 00-6.79 4.507c-.761.517-1.077 1.307-.92 2.211 1.006 5.527 3.389 10.393 7.121 14.6 1.005 1.134 2.483 1.134 3.488.014.69-.775 1.35-1.58 1.953-2.426.143-.201.287-.273.53-.273 1.594.014 3.188 0 4.796 0 0 .043.014.086 0 .115-1.91 3.259-4.22 6.173-7.336 8.383-.301.216-.632.417-.947.618-.503.33-1.005.316-1.508 0-2.024-1.263-3.761-2.857-5.268-4.694-2.871-3.46-4.838-7.422-6.288-11.643-.904-2.598-1.55-5.268-2.038-7.967-.044-.244.071-.316.23-.43 2.727-1.738 5.454-3.49 8.196-5.226 1.709-1.091 3.431-2.182 5.125-3.273.574-.373 1.105-.373 1.68 0 4.392 2.813 8.8 5.627 13.207 8.427.215.157.301.287.258.574zm.086-2.857l-12.46-7.939c-1.292-.832-2.599-.818-3.89 0-4.15 2.642-8.284 5.283-12.433 7.925-.114.071-.23.143-.401.258-.087-.833-.173-1.622-.245-2.397-.043-.417-.043-.847-.086-1.264-.071-.631.187-1.076.718-1.435 3.69-2.455 7.379-4.924 11.068-7.393.416-.273.833-.56 1.25-.833 1.349-.861 2.741-.89 4.076 0 4.149 2.742 8.269 5.513 12.403 8.283.474.316.69.732.66 1.292a52.18 52.18 0 01-.344 3.647c-.158.014-.23-.087-.316-.144zm5.297 9.159c-.043.129-.086.186-.23.186h-4.478a56.765 56.765 0 001.32-5.555c.23.072.417.23.604.344.416.259.832.517 1.234.79 1.436.919 2.038 2.584 1.55 4.235z" fill="#333"/></svg>